<?xml version="1.0" encoding="UTF-8"?>
<svg id="artwork" xmlns="http://www.w3.org/2000/svg" version="1.1" viewBox="0 0 149.1 59.9">
  <!-- Generator: Adobe Illustrator 29.3.1, SVG Export Plug-In . SVG Version: 2.1.0 Build 151)  -->
  <g id="acquistion_small_use_lockup">
    <g id="an_IBM_Company">
      <path d="M47.8,46.4c-.6,0-.8-.3-.9-.8h0c-.2.6-.7.9-1.4.9-1.1,0-1.7-.6-1.7-1.5s.7-1.5,2.1-1.5h1v-.5c0-.7-.4-1.1-1.2-1.1s-1,.3-1.3.7l-.5-.4c.3-.5.9-1,1.8-1s1.9.6,1.9,1.7v2.7h.6v.7h-.4ZM46.9,45v-.8h-1c-.9,0-1.3.3-1.3.8v.2c0,.5.4.8,1,.8s1.3-.4,1.3-.9Z"/>
      <path d="M49.4,46.4v-5h.8v.8h0c.2-.6.7-.9,1.4-.9s1.7.7,1.7,1.9v3.2h-.8v-3.1c0-.9-.4-1.3-1.1-1.3s-1.2.3-1.2.9v3.5h-.8Z"/>
      <path d="M56.6,46.4v-.7h.9v-5.4h-.9v-.7h2.7v.7h-.9v5.4h.9v.7h-2.7Z"/>
      <path d="M60.9,39.7h2.8c1.1,0,1.8.7,1.8,1.7s-.6,1.4-1.1,1.4h0c.5,0,1.3.5,1.3,1.6s-.7,2-1.7,2h-3.1v-6.8ZM61.7,42.6h1.9c.6,0,1-.3,1-.9v-.3c0-.6-.4-.9-1-.9h-1.9v2.2ZM61.7,45.7h2c.7,0,1.1-.4,1.1-1v-.3c0-.7-.4-1-1.1-1h-2v2.4Z"/>
      <path d="M67.2,39.7h1.1l1.9,3.6h0l1.9-3.6h1v6.8h-.8v-5.7h0l-.6,1.1-1.6,2.9-1.6-2.9-.6-1.1h0v5.7h-.8s0-6.8,0-6.8Z"/>
      <path d="M76.7,43.1c0-2.3,1-3.5,2.7-3.5s1.9.5,2.3,1.5l-.7.4c-.3-.7-.8-1.2-1.7-1.2s-1.8.9-1.8,2.3v1c0,1.4.7,2.2,1.8,2.2s1.5-.5,1.7-1.2l.6.4c-.4.9-1.2,1.5-2.4,1.5-1.7,0-2.7-1.2-2.7-3.5Z"/>
      <path d="M82.7,44c0-1.6.9-2.6,2.3-2.6s2.3,1,2.3,2.6-.9,2.6-2.3,2.6-2.3-1-2.3-2.6ZM86.3,44.3v-.7c0-1.1-.6-1.6-1.4-1.6s-1.4.5-1.4,1.6v.7c0,1.1.6,1.6,1.4,1.6s1.4-.5,1.4-1.6Z"/>
      <path d="M88.5,46.4v-5h.8v.8h0c.2-.5.6-.9,1.3-.9s1.3.3,1.5,1h0c.2-.5.7-1,1.5-1s1.6.7,1.6,1.9v3.2h-.8v-3.1c0-.9-.3-1.3-1.1-1.3s-1.2.3-1.2.9v3.5h-.8v-3.1c0-.9-.3-1.3-1.1-1.3s-1.2.3-1.2.9v3.5h-.8Z"/>
      <path d="M97,41.5h.8v.8h0c.3-.6.8-.9,1.5-.9,1.2,0,2,1,2,2.6s-.8,2.6-2,2.6-1.2-.3-1.5-.9h0v2.7h-.8v-6.9ZM100.5,44.4v-.9c0-.9-.5-1.5-1.4-1.5s-1.3.4-1.3,1v1.9c0,.6.6,1,1.3,1s1.4-.6,1.4-1.5Z"/>
      <path d="M106.3,46.4c-.6,0-.8-.3-.9-.8h0c-.2.6-.7.9-1.4.9-1.1,0-1.7-.6-1.7-1.5s.7-1.5,2.1-1.5h1v-.5c0-.7-.4-1.1-1.2-1.1s-1,.3-1.3.7l-.5-.4c.3-.5.9-1,1.8-1s1.9.6,1.9,1.7v2.7h.6v.7h-.4ZM105.4,45v-.8h-1c-.9,0-1.3.3-1.3.8v.2c0,.5.4.8,1,.8s1.3-.4,1.3-.9Z"/>
      <path d="M107.9,46.4v-5h.8v.8h0c.2-.6.7-.9,1.4-.9s1.7.7,1.7,1.9v3.2h-.8v-3.1c0-.9-.4-1.3-1.1-1.3s-1.2.3-1.2.9v3.5h-.8Z"/>
      <path d="M116.4,41.5h.8l-2.2,6.2c-.2.6-.4.8-1.2.8h-.4v-.7h.8l.4-1.1-1.9-5.2h.8l1.2,3.4.2.8h0l.3-.8,1.2-3.4Z"/>
    </g>
    <g id="HashiCorp">
      <path d="M43.9,19.4h2.6v5.5h5.9v-5.5h2.6v13.5h-2.6v-5.7h-5.9v5.7h-2.6v-13.5Z"/>
      <path d="M56.5,30.3c0-2,1.4-2.7,3.2-3.1l2.9-.7v-.2c0-1-.6-1.6-1.7-1.6s-1.6.6-1.8,1.5l-2.2-.3c.3-1.9,1.9-3,4.1-3s4.1,1.5,4.1,3.8v4c0,.3,0,.3.3.3h.5v2h-1.5c-.9,0-1.4-.3-1.4-1.1s0-.5.1-.8h-.2c-.7,1.4-1.7,2.1-3.2,2.1s-3.3-1.1-3.3-2.8ZM60.5,31.2c1.3,0,2.2-.9,2.2-2.4v-.8l-2.1.5c-1.1.3-1.5.6-1.5,1.4s.6,1.2,1.4,1.2Z"/>
      <path d="M66.8,30.2l2.4-.5c.3,1,1.1,1.6,2.2,1.6s1.7-.4,1.7-1.2-.7-.9-2.1-1.2c-1.8-.3-4-.6-4-3s1.6-3.1,4.1-3.1,4,.9,4.4,2.9l-2.4.4c-.2-1-1-1.5-2-1.5s-1.7.5-1.7,1.1.8.9,2.1,1.2c1.7.3,4,.6,4,3s-1.5,3.2-4.1,3.2-4.1-1-4.5-2.9Z"/>
      <path d="M79.5,32.9h-2.5v-13.9h2.5v4.3c0,.5,0,1-.2,1.7h.2c.6-1.4,1.5-2.2,3.2-2.2s3.3,1.4,3.3,3.6v6.4h-2.5v-6.3c0-1.1-.6-1.7-1.7-1.7s-2.3,1-2.3,2.7v5.4h0Z"/>
      <path d="M91.2,30.4c0,.4.1.5.4.5h1.1v2h-2.3c-1.1,0-1.8-.6-1.8-1.8v-6h-1.4v-2h3.9v7.3ZM88.3,20.5c0-.8.7-1.5,1.5-1.5s1.5.7,1.5,1.5-.7,1.5-1.5,1.5-1.5-.7-1.5-1.5Z"/>
      <path d="M93.5,26.1c0-4.1,2.7-7,6.5-7s5.5,1.9,6.1,4.4l-2.5.6c-.5-1.8-1.7-2.8-3.5-2.8s-3.8,1.9-3.8,4.7,1.5,4.7,3.9,4.7,3-1,3.5-2.9l2.4.3c-.6,3-2.8,4.9-6,4.9s-6.6-2.9-6.6-7h0Z"/>
      <path d="M107.1,28c0-3,2.1-5.1,5-5.1s5,2.1,5,5.1-2.1,5.1-5,5.1-5-2.2-5-5.1ZM114.6,28c0-1.9-1-3.1-2.5-3.1s-2.5,1.2-2.5,3.1,1,3.1,2.5,3.1,2.5-1.2,2.5-3.1Z"/>
      <path d="M118.7,23.1h2.3v.4c0,.5,0,.9-.2,1.7h.2c.4-1.2,1-2.1,2.6-2.1h.7v2.4h-1c-1.4,0-2.2.8-2.2,2.4v5h-2.5v-9.8Z"/>
      <path d="M125.6,23.1h2.5v.4c0,.4,0,.8-.2,1.6h.2c.6-1.5,1.7-2.3,3.2-2.3,2.4,0,4.3,2,4.3,5.1s-1.9,5.1-4.3,5.1-2.5-.8-3.1-2.3h-.2c.1.8.2,1.2.2,1.6v4.4h-2.5v-13.8h0ZM133.1,28c0-1.9-1-3.1-2.5-3.1s-2.5,1.2-2.5,3.1,1,3.1,2.5,3.1,2.5-1.2,2.5-3.1Z"/>
      <polygon points="23.5 13.5 13.5 19.3 13.5 19.3 13.5 33.1 17.3 35.3 17.3 21.4 23.5 17.8 23.5 13.5"/>
      <polygon points="27.5 13.5 27.5 24.5 23.5 24.5 23.5 20.4 19.7 22.6 19.7 36.7 23.5 38.9 23.5 27.9 27.5 27.9 27.5 32 31.2 29.8 31.2 15.7 27.5 13.5"/>
      <polygon points="27.5 38.9 37.5 33.1 37.5 33.1 37.5 19.3 33.7 17.1 33.7 31 27.5 34.6 27.5 38.9"/>
    </g>
  </g>
</svg>