<svg width="188" height="48" viewBox="0 0 188 48" fill="none" xmlns="http://www.w3.org/2000/svg">
<mask id="mask0_2348_20285" style="mask-type:luminance" maskUnits="userSpaceOnUse" x="1" y="1" width="186" height="46">
<path d="M186.782 1.31094H1.21777V46.6891H186.782V1.31094Z" fill="white"/>
</mask>
<g mask="url(#mask0_2348_20285)">
<mask id="mask1_2348_20285" style="mask-type:luminance" maskUnits="userSpaceOnUse" x="1" y="1" width="186" height="46">
<path d="M186.782 1.31094H1.21777V46.6891H186.782V1.31094Z" fill="white"/>
</mask>
<g mask="url(#mask1_2348_20285)">
<path d="M5.15139 15.3322C5.55332 15.3322 5.83513 15.0204 5.83513 14.6411C5.83513 14.2618 5.55332 13.9524 5.15139 13.9524C4.74947 13.9524 4.46765 14.2642 4.46765 14.6411C4.46765 15.0181 4.74947 15.3322 5.15139 15.3322Z" fill="#005D45"/>
<path d="M3.21817 15.3322C3.60855 15.3322 3.90191 15.0204 3.90191 14.6411C3.90191 14.2618 3.60624 13.9524 3.21817 13.9524C2.80237 13.9524 2.53442 14.2642 2.53442 14.6411C2.53442 15.0181 2.80237 15.3322 3.21817 15.3322Z" fill="#005D45"/>
<path d="M13.1278 17.9965C13.1278 18.3758 13.4096 18.6736 13.8947 18.6736C14.3798 18.6736 14.6731 18.2944 14.6731 17.8755C14.6731 16.9703 13.7469 16.3468 12.7397 16.3468C11.0743 16.3468 9.61211 17.6452 9.61211 19.4438C9.61211 20.5677 10.1226 21.4867 10.9288 22.0267H7.30447C6.67385 21.9731 6.60686 21.3099 6.60686 20.9446V17.4404C6.60686 17.1565 6.62072 16.8052 6.70157 16.4538H6.02938C5.93467 16.5492 5.96239 16.6028 5.93467 16.6562C5.88155 16.8191 5.81456 16.9937 5.78684 16.9937C5.78684 16.9937 5.70599 16.9401 5.55815 16.8447C5.24862 16.6423 4.73813 16.3026 3.97353 16.3026C2.28266 16.3026 1.22009 17.8313 1.22009 19.388C1.22009 21.0656 2.28035 22.5269 3.69173 22.5269C4.83283 22.5269 5.43804 21.7008 5.639 21.1191C5.639 22.3501 6.39204 22.5129 7.30447 22.5269H12.622C13.4535 22.5269 14.0726 22.257 14.5693 21.7683L14.2343 21.538C13.8855 21.8498 13.4419 22.0242 12.8644 22.0242C11.534 22.0242 10.9588 20.8608 10.9588 19.2925C10.9588 17.6289 11.5895 16.7773 12.786 16.7773C13.4697 16.7773 13.8462 17.0611 14.0356 17.4265C13.9409 17.4125 13.8601 17.3985 13.7677 17.3985C13.3658 17.3985 13.1371 17.6149 13.1371 17.9942M5.3133 20.8515C5.09847 21.5683 4.521 22.0685 3.86266 22.0685C3.29904 22.0685 2.43974 21.4612 2.43974 19.4717C2.43974 18.078 2.92251 16.7796 3.97122 16.7796C5.3133 16.7796 5.46113 18.0639 5.46113 19.2135C5.46113 19.9301 5.43341 20.4443 5.3133 20.8493" fill="#005D45"/>
<path d="M17.4774 22.527V13.8827L15.7196 14.2201C16.2833 14.4086 16.297 14.5041 16.297 14.8158V22.5247H17.4798L17.4774 22.527Z" fill="#005D45"/>
<path d="M21.6812 16.4961L19.8956 16.8335C20.4869 17.0242 20.5009 17.1173 20.5009 17.4431V20.8798C20.3946 23.423 19.4267 24.3817 17.4795 24.9099C17.9761 24.9495 18.2717 24.9635 18.4473 24.9635C21.4548 24.9635 21.6835 22.2852 21.6835 19.863V16.4937L21.6812 16.4961Z" fill="#005D45"/>
<path d="M24.8227 15.4278C25.1993 15.4278 25.5204 15.116 25.5204 14.7251C25.5204 14.3342 25.1993 14.0224 24.8227 14.0224C24.4463 14.0224 24.1251 14.3203 24.1251 14.7251C24.1251 15.13 24.4463 15.4278 24.8227 15.4278Z" fill="#005D45"/>
<path d="M28.5812 14.8182V20.7283C28.5812 21.5265 28.2717 22.0267 27.521 22.0267H25.5206C25.6292 21.3357 25.6545 20.5934 25.6545 19.8627V16.4935L23.8828 16.8308C24.4603 17.0217 24.4742 17.1148 24.4742 17.4405V20.8773C24.3794 23.4205 23.4139 24.3814 21.4528 24.9073C21.9493 24.9469 22.2589 24.9609 22.4206 24.9609C24.301 24.9609 25.0932 23.9045 25.4144 22.527H27.8051C28.9462 22.527 29.7662 21.9057 29.7662 20.7679V13.8827L27.9945 14.2201C28.5859 14.4086 28.5859 14.5041 28.5859 14.8158" fill="#005D45"/>
<path d="M31.5492 14.8182V22.527H32.7319V13.8827L30.9718 14.2201C31.5354 14.4086 31.5492 14.5041 31.5492 14.8158" fill="#005D45"/>
<path d="M34.2083 20.4187C34.2083 21.717 35.3632 22.5011 36.264 22.5291H36.3311C37.3105 22.5291 37.7147 22.0148 37.9965 21.5681C37.7425 24.0974 36.2387 24.6396 35.1091 24.8955L34.788 24.949C35.2708 24.9886 35.7004 25.0165 35.8898 25.0165C37.3266 25.0165 39.1538 24.4488 39.1538 19.8625V16.5491H38.1327C35.8506 16.5491 34.2105 18.0639 34.2105 20.4163M37.9688 20.0789C37.9688 21.1307 37.3543 22.1009 36.5528 22.1079C35.7905 22.0754 35.3771 21.133 35.3771 20.3372C35.3771 18.3221 36.6383 16.968 37.8209 16.968H37.9688V20.0789Z" fill="#005D45"/>
<path d="M45.6357 16.305C43.8501 16.305 42.8014 17.8337 42.8014 19.4299C42.8014 21.0262 43.8501 22.527 45.6357 22.527C47.4213 22.527 48.47 20.9982 48.47 19.4299C48.47 17.8616 47.4098 16.305 45.6357 16.305ZM45.6357 22.0686C44.5616 22.0686 44.0788 21.1216 44.0788 19.4299C44.0788 17.7384 44.5616 16.7774 45.6357 16.7774C46.7098 16.7774 47.181 17.7104 47.181 19.4299C47.181 21.1495 46.6983 22.0686 45.6357 22.0686Z" fill="#005D45"/>
<path d="M55.4225 23.7716C55.0206 23.7716 54.7386 24.0695 54.7386 24.4487C54.7386 24.8279 55.0206 25.1398 55.4225 25.1398C55.8244 25.1398 56.1061 24.8279 56.1061 24.4487C56.1061 24.0695 55.8244 23.7716 55.4225 23.7716Z" fill="#005D45"/>
<path d="M53.4891 23.7716C53.0734 23.7716 52.8054 24.0695 52.8054 24.4487C52.8054 24.8279 53.0734 25.1398 53.4891 25.1398C53.8795 25.1398 54.1729 24.8279 54.1729 24.4487C54.1729 24.0695 53.8772 23.7716 53.4891 23.7716Z" fill="#005D45"/>
<path d="M68.2589 14.8043V20.7285C68.2589 21.5126 67.949 22.0269 67.2514 22.0269H66.2164C65.6113 22.0269 65.1426 21.4591 64.9138 20.8238C64.9415 20.675 64.9531 20.5121 64.9531 20.3376C64.9531 19.0928 64.0799 17.4429 62.456 17.4429C60.481 17.4429 60.1461 18.6878 59.8227 19.9443C59.6472 20.6214 59.4324 21.4312 59.0305 21.8244C58.8687 21.9594 58.64 22.0012 58.5199 22.0269H57.4596C56.5195 22.0269 55.9558 20.796 55.9558 19.9443V16.4959L54.1841 16.8333C54.7224 17.0218 54.7755 17.0776 54.7755 17.3755V20.7704C54.7755 21.5545 54.4798 22.0292 53.7684 22.0292H52.7219C52.1583 21.9897 51.8349 21.6103 51.8349 20.8937V13.9132L49.6868 14.0085V14.4553C50.4513 14.4553 50.6546 14.5763 50.6546 14.9021V20.8401C50.6546 22.1246 51.5 22.5318 52.6411 22.5318H54.011C54.8425 22.5318 55.6764 22.2875 55.9974 21.4754C56.4133 22.1106 56.9908 22.5318 57.6768 22.5318H58.5084C59.2198 22.5318 59.6102 22.3014 59.9174 21.964C60.3194 22.4783 60.883 23.1135 62.1049 23.1135C63.4077 23.1135 64.2393 22.4503 64.6297 21.6266C65.0871 22.2223 65.5979 22.5318 66.4824 22.5318H67.4618C68.6026 22.5318 69.4227 21.9105 69.4227 20.7726V13.8736L67.6371 14.211C68.2404 14.4018 68.2538 14.4948 68.2538 14.8066M62.1488 22.6365C61.3173 22.6365 60.712 21.9477 60.3633 21.515C60.3494 21.487 60.324 21.4475 60.2963 21.4335C60.5526 20.9472 60.6727 20.4469 60.7929 19.9862L60.8206 19.9048C61.0885 18.8484 61.3588 17.8757 62.2181 17.8757H62.2713C63.2506 17.9154 63.7219 19.1206 63.7219 20.4051C63.7219 21.6894 62.9966 22.6365 62.1512 22.6365" fill="#005D45"/>
<path d="M71.2129 14.8182V22.527H72.3958V13.8827L70.6357 14.2201C71.1994 14.4086 71.2129 14.5041 71.2129 14.8158" fill="#005D45"/>
<path d="M73.8699 20.4187C73.8699 21.717 75.0247 22.5011 75.9257 22.5291H75.9927C76.9722 22.5291 77.3758 22.0148 77.6577 21.5681C77.4039 24.0974 75.8977 24.6396 74.7703 24.8955L74.4495 24.949C74.9323 24.9886 75.362 25.0165 75.5515 25.0165C76.9881 25.0165 78.815 24.4488 78.815 19.8625V16.5491H77.7941C75.5119 16.5491 73.8718 18.0639 73.8718 20.4163M77.6303 20.0789C77.6303 21.1307 77.0156 22.1009 76.214 22.1079C75.4519 22.0754 75.0388 21.133 75.0388 20.3372C75.0388 18.3221 76.2995 16.968 77.4823 16.968H77.6303V20.0789Z" fill="#005D45"/>
<path d="M84.4792 15.3322C84.869 15.3322 85.1631 15.0204 85.1631 14.6411C85.1631 14.2618 84.8673 13.9524 84.4792 13.9524C84.0635 13.9524 83.7953 14.2642 83.7953 14.6411C83.7953 15.0181 84.0635 15.3322 84.4792 15.3322Z" fill="#005D45"/>
<path d="M86.4127 15.3322C86.8138 15.3322 87.0958 15.0204 87.0958 14.6411C87.0958 14.2618 86.8138 13.9524 86.4127 13.9524C86.0108 13.9524 85.7288 14.2642 85.7288 14.6411C85.7288 15.0181 86.0108 15.3322 86.4127 15.3322Z" fill="#005D45"/>
<path d="M92.9503 14.6296H92.3199C91.8232 14.6296 91.4885 14.0083 91.4885 13.6011C91.4885 13.3312 91.6498 13.0193 91.8783 13.0193C91.9455 13.0193 92.0541 13.0333 92.1068 13.1125C92.0006 13.2078 91.9058 13.3567 91.9058 13.4382C91.9058 13.6406 92.0938 13.7755 92.3499 13.7755C92.6059 13.7755 92.7931 13.6941 92.7931 13.3823C92.7931 12.9775 92.4025 12.6656 91.9058 12.6656C91.1944 12.6656 90.7908 13.1659 90.7908 13.7616C90.7908 14.099 91.0582 14.4248 91.3005 14.6272H90.696L90.5339 15.06H92.9503V14.6272V14.6296Z" fill="#005D45"/>
<path d="M96.5352 23.7716C96.1325 23.7716 95.8505 24.0695 95.8505 24.4487C95.8505 24.8279 96.1325 25.1398 96.5352 25.1398C96.9363 25.1398 97.2183 24.8279 97.2183 24.4487C97.2183 24.0695 96.9363 23.7716 96.5352 23.7716Z" fill="#005D45"/>
<path d="M94.6018 23.7716C94.1861 23.7716 93.9178 24.0695 93.9178 24.4487C93.9178 24.8279 94.1861 25.1398 94.6018 25.1398C94.9923 25.1398 95.2857 24.8279 95.2857 24.4487C95.2857 24.0695 94.9891 23.7716 94.6018 23.7716Z" fill="#005D45"/>
<path d="M100.887 23.6114C100.51 23.6114 100.189 23.9232 100.189 24.314C100.189 24.705 100.51 25.0168 100.887 25.0168C101.263 25.0168 101.584 24.7189 101.584 24.314C101.584 23.9092 101.263 23.6114 100.887 23.6114Z" fill="#005D45"/>
<path d="M104.887 14.8183V20.7285C104.887 21.5266 104.578 22.0269 103.827 22.0269H103.398C102.457 22.0269 101.894 20.796 101.894 19.9443V16.4959L100.122 16.8333C100.661 17.0218 100.714 17.0777 100.714 17.3755V20.7704C100.714 21.5545 100.417 22.0291 99.706 22.0291H98.5788C97.6389 22.0291 97.0749 20.7983 97.0749 19.9466V16.4983L95.3035 16.8357C95.8416 17.0242 95.895 17.0799 95.895 17.3778V20.7727C95.895 21.5568 95.5993 22.0315 94.8878 22.0315H94.135C93.1951 22.0315 92.6311 20.8006 92.6311 19.949V16.5006L90.8589 16.838C91.3969 17.0264 91.4512 17.0824 91.4512 17.3802V20.775C91.4512 21.5592 91.1547 22.0338 90.4432 22.0338H88.5632C87.9328 21.9803 87.8656 21.3172 87.8656 20.9519V17.4477C87.8656 17.1637 87.8793 16.8124 87.9604 16.461H87.2878C87.193 16.5565 87.2213 16.6099 87.193 16.6635C87.1403 16.8264 87.0731 17.0008 87.0455 17.0008C87.0455 17.0008 86.9645 16.9474 86.817 16.8519C86.5074 16.6495 85.9969 16.3098 85.232 16.3098C83.5409 16.3098 82.4785 17.8386 82.4785 19.3952C82.4785 21.0729 83.5392 22.5341 84.95 22.5341C86.0918 22.5341 86.6971 21.7081 86.898 21.1264C86.898 22.3572 87.6508 22.5202 88.5632 22.5341H90.6839C91.5152 22.5341 92.3491 22.2897 92.67 21.4777C93.0703 22.0873 93.6197 22.4945 94.2687 22.5271V22.5341H95.1277C95.9599 22.5341 96.7929 22.2897 97.1146 21.4777C97.5303 22.1129 98.1072 22.5341 98.7936 22.5341H99.9483C100.78 22.5341 101.614 22.2897 101.935 21.4777C102.335 22.0873 102.885 22.4945 103.533 22.5271V22.5341H104.111C105.253 22.5341 106.073 21.9129 106.073 20.775V13.8898L104.301 14.2273C104.892 14.4157 104.892 14.5111 104.892 14.8229M86.5723 20.8517C86.3567 21.5684 85.7798 22.0688 85.121 22.0688C84.5578 22.0688 83.6989 21.4614 83.6989 19.4719C83.6989 18.0782 84.181 16.7798 85.2296 16.7798C86.5723 16.7798 86.7198 18.0642 86.7198 19.2137C86.7198 19.9303 86.6922 20.4446 86.5723 20.8495" fill="#005D45"/>
<path d="M107.856 14.8182V22.527H109.039V13.8827L107.279 14.2201C107.842 14.4086 107.856 14.5041 107.856 14.8158" fill="#005D45"/>
<path d="M116.516 15.0623C116.906 15.0623 117.199 14.7506 117.199 14.3713C117.199 13.992 116.903 13.6825 116.516 13.6825C116.128 13.6825 115.831 13.9804 115.831 14.3713C115.831 14.7622 116.113 15.0623 116.516 15.0623Z" fill="#005D45"/>
<path d="M115.522 16.305C113.737 16.305 112.688 17.8337 112.688 19.4299C112.688 21.0262 113.734 22.527 115.522 22.527C117.31 22.527 118.357 20.9982 118.357 19.4299C118.357 17.8616 117.297 16.305 115.522 16.305ZM115.522 22.0686C114.448 22.0686 113.965 21.1216 113.965 19.4299C113.965 17.7384 114.448 16.7774 115.522 16.7774C116.597 16.7774 117.067 17.7104 117.067 19.4299C117.067 21.1495 116.584 22.0686 115.522 22.0686Z" fill="#005D45"/>
<path d="M114.568 15.0623C114.97 15.0623 115.252 14.7506 115.252 14.3713C115.252 13.992 114.97 13.6825 114.568 13.6825C114.166 13.6825 113.896 13.9804 113.896 14.3713C113.896 14.7622 114.164 15.0623 114.568 15.0623Z" fill="#005D45"/>
<path d="M121.376 17.4431V20.8798C121.269 23.423 120.302 24.3841 118.355 24.9099C118.851 24.9495 119.146 24.9635 119.322 24.9635C122.329 24.9635 122.559 22.2852 122.559 19.863V16.4937L120.774 16.8311C121.364 17.022 121.378 17.115 121.378 17.4407" fill="#005D45"/>
<path d="M125.525 22.527V13.8827L123.766 14.2201C124.33 14.4086 124.344 14.5041 124.344 14.8158V22.5247H125.526L125.525 22.527Z" fill="#005D45"/>
<path d="M128.546 17.3754V20.8121C128.439 23.3553 127.473 24.314 125.525 24.8422C126.021 24.8817 126.317 24.9097 126.493 24.9097C129.5 24.9097 129.729 22.2175 129.729 19.7976V16.4423L127.943 16.7797C128.535 16.9566 128.549 17.0636 128.549 17.3754" fill="#005D45"/>
<path d="M129.057 13.6825C128.68 13.6825 128.359 13.9804 128.359 14.3852C128.359 14.7901 128.68 15.0879 129.057 15.0879C129.434 15.0879 129.741 14.7761 129.741 14.3852C129.741 13.9943 129.42 13.6825 129.057 13.6825Z" fill="#005D45"/>
<path d="M135.125 16.5494C132.843 16.5494 131.203 18.0642 131.203 20.4167C131.203 21.7151 132.357 22.4992 133.258 22.5272H133.326C134.305 22.5272 134.71 22.0129 134.991 21.5661C134.736 24.0955 133.231 24.6376 132.104 24.8935L131.782 24.947C132.265 24.9866 132.695 25.0145 132.884 25.0145C134.321 25.0145 136.148 24.4467 136.148 19.8605V16.5471H135.127L135.125 16.5494ZM134.963 20.0793C134.963 21.1311 134.349 22.1013 133.548 22.1082C132.785 22.0757 132.372 21.1333 132.372 20.3375C132.372 18.3225 133.633 16.9683 134.815 16.9683H134.963V20.0793Z" fill="#005D45"/>
<path d="M1.93143 29.8262C1.93143 29.1515 1.82979 29.1817 1.21765 29.0585V28.8979H2.85309L4.27832 32.9023H4.29217L5.68969 28.8979H6.66218V33.7796H5.94148V29.4633H5.92761L4.41461 33.7796H3.90411L2.39803 29.5075H2.38417V33.7796H1.93143V29.8262Z" fill="#005D45"/>
<path d="M7.81941 31.3482C7.81941 30.8409 7.70393 30.7176 7.26501 30.7037V30.5594L8.54012 30.3268V33.7797H7.81941V31.3505V31.3482ZM7.74085 29.2959C7.74085 29.0492 7.94185 28.8468 8.1936 28.8468C8.44542 28.8468 8.6533 29.0423 8.6533 29.2959C8.6533 29.5496 8.43847 29.7519 8.18665 29.7519C7.93489 29.7519 7.74085 29.5496 7.74085 29.2959Z" fill="#005D45"/>
<path d="M9.64206 31.3481C9.64206 30.8408 9.5197 30.7176 9.06689 30.7036V30.5593L10.3628 30.3266V31.255H10.3766C10.4852 31.0014 10.8663 30.3266 11.5778 30.3266C12.2338 30.3266 12.4486 30.7921 12.4486 31.3481V33.7774H11.7279V31.8996C11.7279 31.3272 11.7279 30.8199 11.2451 30.8199C10.7623 30.8199 10.3604 31.4947 10.3604 32.0089V33.7797H9.63971V31.3504L9.64206 31.3481Z" fill="#005D45"/>
<path d="M13.5368 31.3482C13.5368 30.8409 13.4213 30.7176 12.9824 30.7037V30.5594L14.2575 30.3268V33.7797H13.5368V31.3505V31.3482ZM13.4582 29.2959C13.4582 29.0492 13.6592 28.8468 13.911 28.8468C14.1628 28.8468 14.3707 29.0423 14.3707 29.2959C14.3707 29.5496 14.1559 29.7519 13.9041 29.7519C13.6522 29.7519 13.4582 29.5496 13.4582 29.2959Z" fill="#005D45"/>
<path d="M16.9712 30.9944C16.8626 30.9222 16.5185 30.6453 16.1142 30.6453C15.8833 30.6453 15.6107 30.7314 15.6107 31.0431C15.6107 31.7319 17.1883 31.7459 17.1883 32.8558C17.1883 33.5678 16.6062 33.8563 15.8924 33.8563C15.4535 33.8563 15.1371 33.7703 14.9708 33.726V33.1606C15.1787 33.3072 15.5182 33.5376 15.9201 33.5376C16.3729 33.5376 16.5392 33.3048 16.5392 33.0513C16.5392 32.3393 14.9639 32.2974 14.9639 31.2969C14.9639 30.7756 15.3173 30.3242 16.165 30.3242C16.5323 30.3242 16.8488 30.4196 16.9712 30.4475V30.992V30.9944Z" fill="#005D45"/>
<path d="M19.6644 33.8008C19.505 33.8311 19.341 33.859 19.1816 33.859C18.491 33.859 18.0867 33.7496 18.0867 32.9236V30.6968H17.5254V30.4059H18.0867V29.8335L18.8074 29.1891V30.4083H19.7499V30.6991H18.8074V32.8096C18.8074 33.3168 18.8444 33.5425 19.3988 33.5425C19.4842 33.5425 19.579 33.5356 19.6644 33.5146V33.8055V33.8008Z" fill="#005D45"/>
<path d="M20.3418 31.3481C20.3418 30.8408 20.2263 30.7176 19.7736 30.7036V30.5593L21.0625 30.3266V31.2829H21.0764C21.1781 30.9502 21.3998 30.3266 21.9772 30.3266C22.1066 30.3266 22.2429 30.3406 22.3654 30.3639V31.0526C22.2498 31.0154 22.1205 30.9665 21.9981 30.9665C21.2704 30.9665 21.0625 31.5389 21.0625 32.0485V33.782H20.3418V31.3528V31.3481Z" fill="#005D45"/>
<path d="M24.4305 34.0542C24.2064 34.6336 23.9546 35.2572 23.1715 35.2572C22.3885 35.2572 22.1992 34.6545 22.1714 34.3288H22.9983C22.9983 34.5452 23.0353 34.8662 23.3795 34.8662C23.6959 34.8662 23.8553 34.4963 23.9546 34.2357L24.0494 33.9891L22.8898 31.2038C22.7165 30.7757 22.6172 30.5732 22.1183 30.55V30.4057H23.3425L24.4074 33.0746L25.4446 30.4057H25.8557L24.4305 34.0542Z" fill="#005D45"/>
<path d="M28.297 32.0949C28.297 30.8826 28.8005 30.3242 29.8516 30.3242C30.9026 30.3242 31.4061 31.0501 31.4061 32.0949C31.4061 33.277 30.9164 33.8563 29.8516 33.8563C28.692 33.8563 28.297 33.1094 28.297 32.0949ZM29.8516 33.612C30.5584 33.612 30.6139 32.8209 30.6139 32.0972C30.6139 31.4294 30.5492 30.5732 29.8516 30.5732C29.1539 30.5732 29.0893 31.4574 29.0893 32.0972C29.0893 32.6976 29.1401 33.612 29.8516 33.612Z" fill="#005D45"/>
<path d="M32.3277 30.6965H31.7433V30.4056H32.3277V29.9193C32.3277 29.3399 32.5795 28.7 33.4434 28.7C34.3651 28.7 34.6815 29.0258 34.76 29.5563H33.9539C33.947 29.2957 33.8523 28.9467 33.4942 28.9467C33.0762 28.9467 33.0484 29.4097 33.0484 29.7517V30.4056H34.007V30.6965H33.0484V33.7795H32.3277V30.6965Z" fill="#005D45"/>
<path d="M36.7192 29.8844C36.7192 29.1655 36.6984 29.1655 36.0355 29.0585V28.8979H39.4843L39.505 29.9706H39.304C39.304 29.3912 39.0015 29.2375 38.5256 29.2375H37.9643C37.6039 29.2375 37.5115 29.2655 37.5115 29.6145V31.0572H38.3824C38.879 31.0572 38.9298 30.7383 38.9738 30.4987H39.1747V32.0229H38.9738C38.9738 31.6319 38.8144 31.3992 38.3824 31.3992H37.5115V33.0163C37.5115 33.4235 37.6039 33.4375 37.9643 33.4375H38.7636C39.1747 33.4375 39.3687 33.2933 39.4126 32.7255H39.6136L39.5905 33.7772H36.7192V29.8822V29.8844Z" fill="#005D45"/>
<path d="M40.4635 31.3481C40.4635 30.8408 40.3412 30.7176 39.8884 30.7036V30.5593L41.1842 30.3266V31.255H41.1982C41.3067 31.0014 41.6878 30.3266 42.4016 30.3266C43.0576 30.3266 43.2724 30.7921 43.2724 31.3481V33.7774H42.5517V31.8996C42.5517 31.3272 42.5517 30.8199 42.0689 30.8199C41.5861 30.8199 41.1842 31.4947 41.1842 32.0089V33.7797H40.4635V31.3504V31.3481Z" fill="#005D45"/>
<path d="M44.2793 31.2038C44.0992 30.7175 44.0207 30.5942 43.531 30.55V30.4057H44.7345L45.7416 32.9583L46.721 30.4057H47.1322L45.8432 33.7773H45.3166L44.2793 31.2015V31.2038Z" fill="#005D45"/>
<path d="M47.8157 31.3482C47.8157 30.8409 47.7002 30.7176 47.2614 30.7037V30.5594L48.5364 30.3268V33.7797H47.8157V31.3505V31.3482ZM47.7349 29.2959C47.7349 29.0492 47.9358 28.8468 48.1876 28.8468C48.4394 28.8468 48.6472 29.0423 48.6472 29.2959C48.6472 29.5496 48.4324 29.7519 48.1807 29.7519C47.9289 29.7519 47.7349 29.5496 47.7349 29.2959Z" fill="#005D45"/>
<path d="M49.5926 31.3481C49.5926 30.8408 49.4771 30.7176 49.0244 30.7036V30.5593L50.3133 30.3266V31.2829H50.3273C50.4289 30.9502 50.6506 30.3266 51.2281 30.3266C51.3574 30.3266 51.4937 30.3406 51.6162 30.3639V31.0526C51.5007 31.0154 51.3713 30.9665 51.2488 30.9665C50.5212 30.9665 50.3133 31.5389 50.3133 32.0485V33.782H49.5926V31.3528V31.3481Z" fill="#005D45"/>
<path d="M51.6968 32.0949C51.6968 30.8826 52.2004 30.3242 53.2514 30.3242C54.3024 30.3242 54.806 31.0501 54.806 32.0949C54.806 33.277 54.3163 33.8563 53.2514 33.8563C52.0918 33.8563 51.6968 33.1094 51.6968 32.0949ZM53.2514 33.612C53.9582 33.612 54.0137 32.8209 54.0137 32.0972C54.0137 31.4294 53.949 30.5732 53.2514 30.5732C52.5539 30.5732 52.4891 31.4574 52.4891 32.0972C52.4891 32.6976 52.5399 33.612 53.2514 33.612Z" fill="#005D45"/>
<path d="M55.6209 31.3481C55.6209 30.8408 55.4985 30.7176 55.0457 30.7036V30.5593L56.3416 30.3266V31.255H56.3554C56.464 31.0014 56.8451 30.3266 57.5589 30.3266C58.2149 30.3266 58.4297 30.7921 58.4297 31.3481V33.7774H57.709V31.8996C57.709 31.3272 57.709 30.8199 57.2263 30.8199C56.7435 30.8199 56.3416 31.4947 56.3416 32.0089V33.7797H55.6209V31.3504V31.3481Z" fill="#005D45"/>
<path d="M59.4442 31.3481C59.4442 30.8408 59.3288 30.7176 58.8899 30.7036V30.5593L60.1788 30.3266V31.1899H60.1927C60.3152 30.9363 60.6477 30.3266 61.2945 30.3266C61.9412 30.3266 62.1307 30.813 62.1792 31.1387H62.1931C62.3433 30.8549 62.6181 30.3266 63.2672 30.3266C64.182 30.3266 64.182 31.1689 64.182 31.6832V33.7797H63.4613V31.7995C63.4613 31.3504 63.4613 30.8199 62.9785 30.8199C62.431 30.8199 62.1724 31.5807 62.1724 32.102V33.7774H61.4517V31.8996C61.4517 31.3272 61.4517 30.8199 60.9689 30.8199C60.4861 30.8199 60.1627 31.4947 60.1627 32.0089V33.7797H59.442V31.3504L59.4442 31.3481Z" fill="#005D45"/>
<path d="M67.6213 33.6634C67.4848 33.7145 67.1035 33.8587 66.6068 33.8587C65.5055 33.8587 64.8423 33.184 64.8423 31.9741C64.8423 30.8292 65.3895 30.3266 66.3556 30.3266C67.5863 30.3266 67.6883 31.2271 67.6883 31.7111H65.6369C65.6369 32.4371 65.9327 33.4656 66.9467 33.4656C67.2489 33.4656 67.5008 33.3934 67.6232 33.3422V33.661L67.6213 33.6634ZM66.9677 31.4202C66.9677 31.2527 66.9537 30.571 66.3274 30.571C65.7867 30.571 65.6369 31.1433 65.6369 31.4202H66.9696H66.9677Z" fill="#005D45"/>
<path d="M68.4001 31.3481C68.4001 30.8408 68.2776 30.7176 67.8248 30.7036V30.5593L69.1206 30.3266V31.255H69.1346C69.2431 31.0014 69.6244 30.3266 70.3354 30.3266C70.9916 30.3266 71.2065 30.7921 71.2065 31.3481V33.7774H70.4859V31.8996C70.4859 31.3272 70.4859 30.8199 70.0031 30.8199C69.5198 30.8199 69.1181 31.4947 69.1181 32.0089V33.7797H68.3975V31.3504L68.4001 31.3481Z" fill="#005D45"/>
<path d="M73.9304 33.8008C73.771 33.8311 73.6071 33.859 73.4476 33.859C72.7571 33.859 72.3528 33.7496 72.3528 32.9236V30.6968H71.791V30.4059H72.3528V29.8335L73.0734 29.1891V30.4083H74.0158V30.6991H73.0734V32.8096C73.0734 33.3168 73.1104 33.5425 73.6645 33.5425C73.75 33.5425 73.8449 33.5356 73.9304 33.5146V33.8055V33.8008Z" fill="#005D45"/>
<path d="M77.1794 29.8262C77.0296 29.1655 76.9626 29.1725 76.3665 29.0585V28.8979H77.6692L78.6213 32.8512H78.6346L79.7716 28.8979H80.2678L81.5641 32.8512H81.5775L82.3699 28.8979H82.8391L81.825 33.7796H81.1414L79.8889 29.9146H79.8756L78.7666 33.7796H78.0964L77.182 29.8262H77.1794Z" fill="#005D45"/>
<path d="M85.006 33.3492C84.8763 33.5027 84.6316 33.8565 84.0774 33.8565C83.5231 33.8565 83.1115 33.4493 83.1115 33.0234C83.1115 32.0019 84.5441 31.9205 85.006 31.9066V31.5366C85.006 31.0805 85.006 30.5733 84.5514 30.5733C84.096 30.5733 84.0474 30.9945 84.0474 31.3133H83.1901C83.2687 30.8339 83.5069 30.3266 84.5441 30.3266C85.5813 30.3266 85.7247 30.8571 85.7247 31.5739V33.7774H85.0036V33.3492H85.006ZM85.006 32.1672C84.7467 32.1741 83.9039 32.2114 83.9039 32.9001C83.9039 33.2328 84.0701 33.4656 84.3358 33.4656C84.754 33.4656 85.006 33.0816 85.006 32.5883V32.1672Z" fill="#005D45"/>
<path d="M88.3973 33.8008C88.2376 33.8311 88.0739 33.859 87.9143 33.859C87.2239 33.859 86.8196 33.7496 86.8196 32.9236V30.6968H86.2572V30.4059H86.8196V29.8335L87.5399 29.1891V30.4083H88.4824V30.6991H87.5399V32.8096C87.5399 33.3168 87.5764 33.5425 88.1307 33.5425C88.2166 33.5425 88.3114 33.5356 88.3973 33.5146V33.8055V33.8008Z" fill="#005D45"/>
<path d="M91.529 33.6634C91.3929 33.7145 91.0112 33.8587 90.5153 33.8587C89.4133 33.8587 88.7496 33.184 88.7496 31.9741C88.7496 30.8292 89.2974 30.3266 90.2633 30.3266C91.4942 30.3266 91.5963 31.2271 91.5963 31.7111H89.5446C89.5446 32.4371 89.8403 33.4656 90.854 33.4656C91.1571 33.4656 91.4083 33.3934 91.5307 33.3422V33.661L91.529 33.6634ZM90.8727 31.4202C90.8727 31.2527 90.8589 30.571 90.2333 30.571C89.6928 30.571 89.5429 31.1433 89.5429 31.4202H90.8751H90.8727Z" fill="#005D45"/>
<path d="M92.2641 31.3481C92.2641 30.8408 92.149 30.7176 91.696 30.7036V30.5593L92.9853 30.3266V31.2829H92.999C93.1003 30.9502 93.3224 30.3266 93.9001 30.3266C94.029 30.3266 94.1651 30.3406 94.2875 30.3639V31.0526C94.1724 31.0154 94.0427 30.9665 93.9204 30.9665C93.1927 30.9665 92.9853 31.5389 92.9853 32.0485V33.782H92.2641V31.3528V31.3481Z" fill="#005D45"/>
<path d="M105.149 29.8262C105.193 29.7029 105.271 29.4494 105.271 29.3981C105.271 29.1072 105.006 29.1003 104.716 29.0585V28.8979H106.07L107.828 33.7796H107.08L106.539 32.2718H104.703L104.162 33.7796H103.716L105.149 29.8262ZM104.826 31.9297H106.416L105.596 29.8123L104.827 31.9297H104.826Z" fill="#005D45"/>
<path d="M110.987 33.8866C110.987 34.6335 110.851 35.3223 109.59 35.3223C108.706 35.3223 108.086 35.1175 108.086 34.3078H108.9C108.9 34.6125 108.992 35.0756 109.569 35.0756C110.267 35.0756 110.267 34.5172 110.267 34.1193V33.27H110.253C110.124 33.4864 109.93 33.7773 109.346 33.7773C108.437 33.7773 108.08 33.0164 108.08 32.1671C108.08 31.2316 108.362 30.3242 109.355 30.3242C109.872 30.3242 110.131 30.629 110.256 30.8244H110.269V30.4033H111.559V30.5476C111.328 30.5476 110.991 30.5848 110.991 31.0618V33.882L110.987 33.8866ZM110.267 31.6318C110.267 31.1735 110.036 30.7174 109.59 30.7174C108.934 30.7174 108.869 31.5365 108.869 32.067C108.869 32.5975 108.941 33.3864 109.533 33.3864C110.152 33.3864 110.267 32.7487 110.267 32.3485V31.6296V31.6318Z" fill="#005D45"/>
<path d="M112.09 31.3481C112.09 30.8408 111.975 30.7176 111.522 30.7036V30.5593L112.811 30.3266V31.2829H112.825C112.927 30.9502 113.149 30.3266 113.726 30.3266C113.855 30.3266 113.991 30.3406 114.114 30.3639V31.0526C113.999 31.0154 113.869 30.9665 113.747 30.9665C113.019 30.9665 112.811 31.5389 112.811 32.0485V33.782H112.09V31.3528V31.3481Z" fill="#005D45"/>
<path d="M114.695 31.3482C114.695 30.8409 114.58 30.7176 114.141 30.7037V30.5594L115.417 30.3268V33.7797H114.695V31.3505V31.3482ZM114.618 29.2959C114.618 29.0492 114.818 28.8468 115.07 28.8468C115.322 28.8468 115.53 29.0423 115.53 29.2959C115.53 29.5496 115.314 29.7519 115.063 29.7519C114.811 29.7519 114.618 29.5496 114.618 29.2959Z" fill="#005D45"/>
<path d="M118.779 33.6843C118.521 33.7774 118.354 33.8587 117.759 33.8587C116.751 33.8587 116.153 33.1398 116.153 32.0462C116.153 31.0526 116.555 30.3266 117.585 30.3266C118.384 30.3266 118.911 30.7338 118.911 31.3202H118.061C118.061 31.0223 117.99 30.5733 117.543 30.5733C117.054 30.5733 116.945 31.1108 116.945 31.8065C116.945 32.8792 117.435 33.4679 118.091 33.4679C118.315 33.4679 118.609 33.4237 118.782 33.3655V33.6843H118.779Z" fill="#005D45"/>
<path d="M121.535 32.9582H121.522C121.399 33.2769 121.103 33.8563 120.406 33.8563C119.441 33.8563 119.441 32.9139 119.441 32.3765V31.3456C119.441 30.8384 119.325 30.7151 118.886 30.7011V30.5569L120.161 30.3242V32.5068C120.161 33.1676 120.406 33.3631 120.752 33.3631C121.222 33.3631 121.538 32.7464 121.538 32.1438V31.3456C121.538 30.8384 121.415 30.7151 120.984 30.7011V30.5569L122.258 30.3242V33.7773H121.538V32.9582H121.535Z" fill="#005D45"/>
<path d="M123.205 29.6867C123.205 29.1724 123.083 29.049 122.658 29.0258V28.8815L123.924 28.7V33.7772H123.203V29.6867H123.205Z" fill="#005D45"/>
<path d="M126.698 33.8008C126.539 33.8311 126.375 33.859 126.216 33.859C125.525 33.859 125.12 33.7496 125.12 32.9236V30.6968H124.559V30.4059H125.12V29.8335L125.841 29.1891V30.4083H126.784V30.6991H125.841V32.8096C125.841 33.3168 125.878 33.5425 126.433 33.5425C126.518 33.5425 126.613 33.5356 126.698 33.5146V33.8055V33.8008Z" fill="#005D45"/>
<path d="M129.514 32.9582H129.5C129.378 33.2769 129.083 33.8563 128.385 33.8563C127.418 33.8563 127.418 32.9139 127.418 32.3765V31.3456C127.418 30.8384 127.303 30.7151 126.865 30.7011V30.5569L128.14 30.3242V32.5068C128.14 33.1676 128.385 33.3631 128.731 33.3631C129.2 33.3631 129.517 32.7464 129.517 32.1438V31.3456C129.517 30.8384 129.394 30.7151 128.962 30.7011V30.5569L130.238 30.3242V33.7773H129.517V32.9582H129.514Z" fill="#005D45"/>
<path d="M131.232 31.3481C131.232 30.8408 131.117 30.7176 130.664 30.7036V30.5593L131.953 30.3266V31.2829H131.967C132.07 30.9502 132.291 30.3266 132.869 30.3266C132.997 30.3266 133.133 30.3406 133.256 30.3639V31.0526C133.141 31.0154 133.011 30.9665 132.889 30.9665C132.161 30.9665 131.953 31.5389 131.953 32.0485V33.782H131.232V31.3528V31.3481Z" fill="#005D45"/>
<path d="M136.081 33.6634C135.944 33.7145 135.563 33.8587 135.066 33.8587C133.965 33.8587 133.302 33.184 133.302 31.9741C133.302 30.8292 133.849 30.3266 134.815 30.3266C136.046 30.3266 136.148 31.2271 136.148 31.7111H134.096C134.096 32.4371 134.393 33.4656 135.406 33.4656C135.709 33.4656 135.961 33.3934 136.083 33.3422V33.661L136.081 33.6634ZM135.425 31.4202C135.425 31.2527 135.41 30.571 134.785 30.571C134.244 30.571 134.094 31.1433 134.094 31.4202H135.427H135.425Z" fill="#005D45"/>
<path d="M101.24 32.9654C101.24 32.9654 101.212 32.97 101.141 33.0468C101.034 33.1562 100.942 33.2353 100.859 33.2841C100.737 33.3493 100.54 33.3377 100.334 33.205C100.219 33.1306 100.094 33.0166 99.9645 32.87L99.8721 32.7653C99.8146 32.7094 99.7822 32.6605 99.7708 32.614L99.7644 32.5815L99.7846 32.5558C100.078 32.1788 100.288 31.9229 100.411 31.7973C100.61 31.5856 100.746 31.4529 100.829 31.3947C100.903 31.3436 101.019 31.2784 101.178 31.2016L101.182 31.1737C101.189 31.1411 101.194 31.1085 101.194 31.0759C101.194 31.0689 101.194 31.0597 101.194 31.0527C101.115 31.0597 101.062 31.0643 101.039 31.0643H100.861L100.605 31.0783C100.374 31.0922 100.184 31.1062 100.028 31.1249C100.011 31.1249 99.9694 31.1318 99.8721 31.1527L99.8657 31.2737C99.9483 31.311 100.011 31.3529 100.052 31.4017C100.103 31.4645 100.129 31.5297 100.129 31.5926C100.129 31.6646 100.094 31.7647 100.02 31.8996C99.928 32.0672 99.8097 32.2231 99.6671 32.3651L99.6161 32.4139L99.5675 32.3627C99.531 32.3232 99.4913 32.2743 99.4467 32.2161L99.0407 31.7158C98.9484 31.6018 98.8698 31.5134 98.8122 31.4552C98.6477 31.297 98.544 31.1854 98.4954 31.1202L98.4654 31.0783L98.4986 31.0365C98.5213 31.0061 98.5554 30.9829 98.5999 30.969C98.685 30.9387 98.8009 30.8735 98.9386 30.7781C99.0756 30.685 99.1655 30.5966 99.2044 30.5175C99.2555 30.4082 99.283 30.2895 99.283 30.1685C99.283 29.9661 99.1931 29.7869 99.0108 29.6241C98.8284 29.4611 98.574 29.3774 98.258 29.3774C98.0246 29.3774 97.9419 29.3913 97.9136 29.4007C97.8933 29.4076 97.8577 29.4192 97.8139 29.4309C97.5603 29.4984 97.3609 29.6147 97.2256 29.7799C97.0887 29.9451 97.0247 30.1243 97.0247 30.3268C97.0247 30.4221 97.0409 30.5153 97.0733 30.6105C97.1049 30.706 97.1446 30.7851 97.1883 30.848C97.237 30.9154 97.3455 31.048 97.5117 31.2411L97.5643 31.3039L97.4955 31.3482C97.4566 31.3714 97.3966 31.3994 97.2994 31.4389C97.1446 31.5041 96.9736 31.6018 96.7929 31.7321C96.6154 31.8578 96.4793 32.009 96.3869 32.1835C96.2946 32.3557 96.2476 32.5419 96.2476 32.735C96.2476 33.0515 96.361 33.3144 96.5806 33.5169C96.8042 33.7216 97.1559 33.8263 97.6243 33.8263C98.1696 33.8263 98.681 33.6355 99.142 33.2562L99.189 33.219L99.2328 33.2585C99.471 33.475 99.6898 33.6309 99.8883 33.7216C100.037 33.789 100.2 33.824 100.374 33.824C100.567 33.824 100.722 33.7937 100.833 33.7309C101.002 33.6378 101.131 33.5191 101.216 33.3842C101.3 33.2492 101.344 33.1399 101.344 33.0607C101.344 33.0352 101.335 33.0142 101.316 32.9957C101.295 32.9747 101.272 32.9654 101.245 32.9654M97.8188 29.6938C97.9209 29.61 98.0408 29.5659 98.1745 29.5659C98.3017 29.5659 98.4103 29.5938 98.5027 29.6496C98.5999 29.7078 98.6599 29.7706 98.681 29.8404C98.7263 30.001 98.7498 30.122 98.7498 30.2057C98.7498 30.3756 98.7223 30.5035 98.6688 30.5943C98.591 30.7199 98.4727 30.8177 98.3155 30.8875L98.2766 30.9062L98.2442 30.8782C98.0084 30.6827 97.8512 30.5198 97.7637 30.3803C97.6916 30.2685 97.6575 30.1592 97.6575 30.0522C97.6575 29.9009 97.7102 29.7822 97.8163 29.6938M98.9711 33.07C98.7361 33.2934 98.4703 33.4075 98.1794 33.4075C98.0197 33.4075 97.8674 33.3679 97.7264 33.2887C97.5878 33.212 97.4703 33.1236 97.3796 33.0235C97.2872 32.9235 97.2021 32.7839 97.1235 32.607C97.0798 32.5047 97.0563 32.3953 97.0563 32.279C97.0563 32.0998 97.1146 31.9369 97.2256 31.7973C97.3366 31.6623 97.4841 31.5553 97.6664 31.4808L97.7102 31.4622L97.7426 31.4995C97.9663 31.7438 98.1907 31.9998 98.403 32.2603L98.8236 32.7699C98.8487 32.8048 98.8746 32.835 98.9022 32.8653C98.937 32.9025 98.9646 32.9421 98.9856 32.984L99.0108 33.0305L98.9711 33.0677V33.07Z" fill="#005D45"/>
<path d="M185.16 23.9977C185.16 35.6273 175.8 45.0557 164.255 45.0557C152.71 45.0557 143.353 35.6273 143.353 23.9977C143.353 12.3681 152.713 2.93979 164.258 2.93979C175.803 2.93979 185.163 12.3681 185.163 23.9977" fill="#008034"/>
<path d="M185.16 23.9977C185.16 35.6273 175.8 45.0557 164.255 45.0557C152.71 45.0557 143.353 35.6273 143.353 23.9977C143.353 12.3681 152.713 2.93979 164.258 2.93979C175.803 2.93979 185.163 12.3681 185.163 23.9977" fill="url(#paint0_radial_2348_20285)"/>
<path d="M164.258 46.689C151.837 46.689 141.731 36.5114 141.731 23.9999C141.731 11.4884 151.837 1.31083 164.258 1.31083C176.679 1.31083 186.782 11.4884 186.782 23.9999C186.782 36.5114 176.679 46.689 164.258 46.689ZM164.258 2.62085C152.556 2.62085 143.039 12.2121 143.039 23.9999C143.039 35.7877 152.556 45.3789 164.258 45.3789C175.96 45.3789 185.475 35.7877 185.475 23.9999C185.475 12.2121 175.958 2.62085 164.258 2.62085Z" fill="url(#paint1_linear_2348_20285)"/>
<path d="M176.684 32.9723C176.738 33.0025 176.835 33.0607 176.809 33.1537C176.794 33.2119 176.743 33.2422 176.654 33.2422C176.62 33.2422 176.588 33.2375 176.576 33.2352C176.079 33.1072 175.548 33.0444 174.996 33.0444C172.158 33.0444 168.489 35.1991 165.55 37.3444C166.136 37.8308 166.764 38.3869 167.369 38.9569C167.456 38.8801 167.486 38.8592 167.57 38.7894C167.831 38.5707 168.08 38.4195 168.33 38.3287C168.48 38.2729 168.63 38.2612 168.776 38.2915C169.058 38.3496 169.242 38.6288 169.212 38.9569C169.186 39.2384 168.994 39.4549 168.764 39.4642C168.581 39.4689 168.42 39.3781 168.327 39.2175C168.214 39.3106 168.108 39.399 168.011 39.4922C167.964 39.5363 167.921 39.5805 167.877 39.6247L168.059 39.7853C168.203 39.9109 168.341 40.0343 168.482 40.1529C168.759 40.3856 169.062 40.6206 169.401 40.7718C169.508 40.8184 169.647 40.8742 169.778 40.8626C169.843 40.858 169.912 40.8371 169.985 40.8161L170.036 40.802C170.036 40.802 170.051 40.7975 170.057 40.7928C170.099 40.7743 170.141 40.7533 170.191 40.7439C170.21 40.7416 170.23 40.737 170.254 40.737C170.36 40.737 170.45 40.7905 170.503 40.8836C170.561 40.9813 170.578 41.1348 170.548 41.2605C170.522 41.3629 170.467 41.435 170.413 41.4979C170.191 41.7492 169.924 41.8934 169.617 41.926C169.561 41.9329 169.503 41.9353 169.446 41.9353C169.387 41.9353 169.33 41.9329 169.27 41.926C169.036 41.9027 168.792 41.8282 168.521 41.7026C168.118 41.5142 167.717 41.2582 167.263 40.8952L166.89 40.595C166.768 40.7137 166.641 40.8324 166.512 40.9487C166.359 41.086 166.17 41.2395 165.932 41.321C165.867 41.3442 165.798 41.3559 165.724 41.3559C165.696 41.3559 165.671 41.3559 165.643 41.3512C165.611 41.3489 165.579 41.3442 165.546 41.335C165.343 41.2955 165.181 41.107 165.142 40.8695C165.103 40.6183 165.196 40.3693 165.375 40.2484C165.55 40.132 165.768 40.1552 165.932 40.3112C165.955 40.3321 165.973 40.3553 165.992 40.3786C166.089 40.2808 166.184 40.1786 166.278 40.0715C165.664 39.5131 164.874 38.9383 164.158 38.3682C163.448 38.9383 162.703 39.5131 162.088 40.0715C162.183 40.1786 162.278 40.2808 162.375 40.3786C162.393 40.353 162.414 40.3298 162.435 40.3112C162.598 40.1576 162.818 40.132 162.991 40.2484C163.17 40.367 163.264 40.616 163.225 40.8695C163.188 41.107 163.023 41.2931 162.82 41.335C162.788 41.342 162.756 41.3467 162.724 41.3512C162.696 41.3536 162.668 41.3559 162.643 41.3559C162.568 41.3559 162.502 41.3442 162.435 41.321C162.197 41.2395 162.008 41.0883 161.855 40.9487C161.726 40.8324 161.599 40.7137 161.476 40.595L161.104 40.8952C160.651 41.2558 160.249 41.5142 159.845 41.7026C159.573 41.8282 159.328 41.9027 159.096 41.926C159.037 41.9329 158.98 41.9353 158.921 41.9353C158.863 41.9353 158.806 41.9329 158.75 41.926C158.443 41.8934 158.172 41.7492 157.954 41.4979C157.9 41.435 157.845 41.3652 157.819 41.2605C157.787 41.1348 157.805 40.9836 157.86 40.8836C157.914 40.7882 158.004 40.737 158.111 40.737C158.134 40.737 158.154 40.7393 158.172 40.7439C158.224 40.7533 158.267 40.7743 158.306 40.7928C158.313 40.7952 158.321 40.7998 158.327 40.802L158.378 40.8161C158.453 40.8371 158.524 40.8556 158.587 40.8626C158.718 40.8742 158.859 40.8184 158.963 40.7718C159.303 40.6206 159.608 40.3856 159.882 40.1529C160.023 40.0343 160.164 39.9109 160.305 39.7853L160.488 39.6247C160.444 39.5805 160.399 39.5363 160.354 39.4922C160.257 39.399 160.15 39.3083 160.037 39.2175C159.942 39.3804 159.783 39.4689 159.6 39.4642C159.372 39.4549 159.177 39.2384 159.152 38.9569C159.122 38.6288 159.307 38.3496 159.589 38.2915C159.734 38.2612 159.885 38.2729 160.035 38.3287C160.284 38.4218 160.534 38.5707 160.795 38.7894C160.877 38.8592 160.907 38.8801 160.996 38.9569C161.62 38.3706 162.227 37.8377 162.82 37.3491C159.882 35.2014 156.211 33.0444 153.37 33.0444C152.819 33.0444 152.287 33.1096 151.79 33.2352C151.779 33.2375 151.747 33.2422 151.712 33.2422C151.626 33.2422 151.573 33.2119 151.557 33.1537C151.532 33.0607 151.632 33.0025 151.682 32.9723C151.859 32.8676 152.846 32.479 154.4 32.479C156.591 32.479 159.896 33.1142 164.095 36.2136L164.181 36.2811L164.2 36.2671C168.399 33.1654 171.758 32.479 173.948 32.479C175.502 32.479 176.489 32.8676 176.666 32.9723M165.422 31.6413C165.167 32.0671 164.816 33.2305 164.816 33.2468C165.188 32.9444 166.303 32.7163 166.782 32.614C170.203 31.8716 170.416 28.749 170.519 28.1371C170.429 28.3116 170.187 28.6792 168.094 28.7747C166.999 28.8259 165.181 28.9608 164.236 30.7688C164.4 31.1015 164.529 31.4738 164.627 31.8833C165.801 29.0609 168.699 29.4471 169.191 29.3424C168.701 29.5565 166.602 29.6611 165.419 31.6413M164.132 34.9478L164.648 34.6918C164.523 29.1562 161.545 28.8422 160.106 28.7747C158.013 28.6792 157.771 28.3093 157.683 28.1371C157.785 28.749 158 31.8716 161.421 32.614C161.908 32.721 162.633 32.821 162.982 33.1329C162.583 29.5146 159.61 29.6053 159.011 29.3424C159.575 29.4611 163.811 28.5606 163.615 34.6918L164.132 34.9478ZM162.395 19.0019C162.303 17.4173 164.102 14.6018 164.102 14.6018C164.102 14.6018 165.828 17.4871 165.81 19.0019C165.795 20.0955 165.045 20.9821 164.102 20.9821C163.16 20.9821 162.461 20.0932 162.395 19.0019ZM164.844 20.3003C164.765 20.3142 164.682 20.3235 164.602 20.3235C163.708 20.3235 162.984 19.4836 162.984 18.4481C162.984 18.2992 163.019 18.1084 163.074 17.8897C162.899 18.355 162.772 18.7808 162.772 19.0438C162.772 19.8885 163.363 20.5749 164.091 20.5749C164.37 20.5749 164.632 20.4725 164.844 20.3003ZM159.411 24.8539C159.411 28.0091 163.864 29.0166 163.864 29.0166V28.037C163.864 24.7631 159.411 23.8743 159.411 23.8743V24.8539ZM164.324 28.0394V29.019C164.324 29.019 168.778 28.0115 168.778 24.8563V23.8766C168.778 23.8766 164.324 24.7655 164.324 28.0394ZM160.534 21.3031C160.534 23.8697 163.92 24.6887 163.92 24.6887V23.8929C163.92 21.231 160.534 20.5074 160.534 20.5074V21.3031ZM164.269 23.8929V24.6887C164.269 24.6887 167.655 23.8697 167.655 21.3031V20.5074C167.655 20.5074 164.269 21.2287 164.269 23.8906M152.255 15.8397C155.195 12.8637 157.085 12.3354 159.438 11.9632C157.029 13.5035 154.78 17.0846 155.48 19.6069C156.753 16.931 158.972 14.3179 161.021 13.364C159.864 14.9998 159.824 17.0381 160.941 18.7761C161.199 16.5192 162.769 14.3506 164.082 12.8963C165.394 14.3482 166.964 16.5192 167.221 18.7761C168.336 17.0357 168.3 14.9998 167.14 13.364C169.189 14.3156 171.409 16.931 172.681 19.6069C173.384 17.0846 171.131 13.5035 168.725 11.9632C171.076 12.3332 172.966 12.8637 175.906 15.8397C174.936 11.8585 171.518 10.4787 168.784 9.9877C171.792 9.7271 172.388 10.0366 175.045 11.1441C172.162 8.2891 170.141 7.77486 167.253 8.05179C167.747 7.61665 168.221 7.38164 168.949 7.18851C167.738 6.70917 165.842 6.96048 165.105 7.6725C165.105 7.6725 164.96 6.36481 164.091 5.83662V5.82498C164.091 5.82498 164.084 5.82963 164.082 5.83196C164.08 5.82963 164.075 5.82731 164.072 5.82498V5.83662C163.204 6.36481 163.059 7.6725 163.059 7.6725C162.321 6.96048 160.425 6.70917 159.215 7.18851C159.942 7.38164 160.416 7.61665 160.911 8.05179C158.023 7.77486 156.002 8.2891 153.119 11.1441C155.775 10.0366 156.371 9.72945 159.378 9.9877C156.646 10.4787 153.229 11.8585 152.257 15.8397" fill="url(#paint2_linear_2348_20285)"/>
</g>
</g>
<defs>
<radialGradient id="paint0_radial_2348_20285" cx="0" cy="0" r="1" gradientUnits="userSpaceOnUse" gradientTransform="translate(163.171 22.7427) scale(22.866 22.1121)">
<stop stop-opacity="0"/>
<stop offset="0.12" stop-opacity="0"/>
<stop offset="0.15" stop-opacity="0"/>
<stop offset="0.87" stop-opacity="0.2916"/>
<stop offset="1"/>
</radialGradient>
<linearGradient id="paint1_linear_2348_20285" x1="146.693" y1="33.4027" x2="186.595" y2="12.3509" gradientUnits="userSpaceOnUse">
<stop stop-color="#C68D00"/>
<stop offset="0.25" stop-color="#FFD740"/>
<stop offset="0.34" stop-color="#F4C833"/>
<stop offset="0.51" stop-color="#D7A313"/>
<stop offset="0.6" stop-color="#C68D00"/>
<stop offset="1" stop-color="#FFD740"/>
</linearGradient>
<linearGradient id="paint2_linear_2348_20285" x1="157.979" y1="7.21876" x2="170.677" y2="42.2789" gradientUnits="userSpaceOnUse">
<stop stop-color="#C68D00"/>
<stop offset="0.05" stop-color="#D2A32A"/>
<stop offset="0.1" stop-color="#DFB955"/>
<stop offset="0.16" stop-color="#EACC78"/>
<stop offset="0.22" stop-color="#F2DA94"/>
<stop offset="0.27" stop-color="#F8E4A8"/>
<stop offset="0.33" stop-color="#FBEAB4"/>
<stop offset="0.39" stop-color="#FDEDB8"/>
<stop offset="0.58" stop-color="#FDEDB8"/>
<stop offset="0.65" stop-color="#F5E09F"/>
<stop offset="0.79" stop-color="#E3C061"/>
<stop offset="1" stop-color="#C68D00"/>
</linearGradient>
</defs>
</svg>
