<svg xmlns="http://www.w3.org/2000/svg" xmlns:xlink="http://www.w3.org/1999/xlink" width="170" height="37" viewBox="0 0 170 37">
    <defs>
        <path id="prefix__a" d="M0.136 0.242L17.441 0.242 17.441 21.094 0.136 21.094z"/>
        <path id="prefix__c" d="M0.036 0.242L17.342 0.242 17.342 36.733 0.036 36.733z"/>
        <path id="prefix__e" d="M0 36.733L169.621 36.733 169.621 0.242 0 0.242z"/>
    </defs>
    <g fill="none" fill-rule="evenodd">
        <path fill="#FFF" d="M45.062 17.63L39.624 17.63 39.624 13.933 54.962 13.933 54.962 17.63 49.5 17.63 49.5 29.133 45.062 29.133zM62.748 23.5h3.878l-.78-1.922c-.354-.903-1.088-3.349-1.088-3.349h-.143s-.731 2.422-1.085 3.349l-.782 1.923zm4.518-9.356l6.409 15.627H68.85l-1.23-3.088h-5.866l-1.206 3.088h-4.824l6.41-15.627h5.132zM79.973 17.944L74.698 17.944 74.698 14.144 89.575 14.144 89.575 17.944 84.277 17.944 84.277 29.771 79.973 29.771z"/>
        <g transform="translate(25.823)">
            <mask id="prefix__b" fill="#fff">
                <use xlink:href="#prefix__a"/>
            </mask>
            <path fill="#FFF" d="M17.441.241H7.923c-4.3 0-7.787 3.502-7.787 7.82v13.033h5.191V8.93c0-1.92 1.55-3.476 3.462-3.476h8.652V.241z" mask="url(#prefix__b)"/>
        </g>
        <path fill="#FFF" d="M0 7.192h15.575c.956 0 1.73.778 1.73 1.738v20.852h-5.191V12.405H0V7.192z"/>
        <g transform="translate(6.886)">
            <mask id="prefix__d" fill="#fff">
                <use xlink:href="#prefix__c"/>
            </mask>
            <path fill="#FFF" d="M.036.241h9.518c4.301 0 7.788 3.502 7.788 7.82v28.672H12.15V8.93c0-1.92-1.55-3.476-3.461-3.476H.036V.241z" mask="url(#prefix__d)"/>
        </g>
        <path fill="#FFF" d="M92.406 22.058c0-4.532 3.379-8.234 8.695-8.234 3.074 0 4.82 1.02 5.885 1.827l-1.324 3.465c-1.11-.902-2.528-1.496-4.158-1.496-2.789 0-4.466 1.946-4.466 4.367 0 2.396 1.63 4.224 4.56 4.224 2.08 0 3.592-1.045 4.49-1.804l1.371 3.228c-.827.854-3.002 2.373-6.334 2.373-6.073 0-8.719-3.797-8.719-7.95M116.095 23.387L116.095 25.997 124.225 25.997 124.225 29.722 111.795 29.722 111.795 14.109 123.846 14.109 123.846 17.834 116.095 17.834 116.095 20.183 122.807 20.183 122.807 23.387zM133.024 14.109L133.024 25.926 140.564 25.926 140.564 29.723 128.724 29.723 128.724 14.109z"/>
        <mask id="prefix__f" fill="#fff">
            <use xlink:href="#prefix__e"/>
        </mask>
        <path fill="#FFF" d="M144.472 29.722L148.444 29.722 148.444 17.387 144.472 17.387zM144.472 15.995L148.444 15.995 148.444 12.822 144.472 12.822zM99.014 34.385L102.986 34.385 102.986 31.212 99.014 31.212zM157.924 14.109L157.924 20.278 158.894 20.278 163.879 14.109 168.984 14.109 162.84 21.844 162.84 21.892 169.621 29.723 164.162 29.723 158.894 23.79 157.924 23.79 157.924 29.723 153.623 29.723 153.623 14.109z" mask="url(#prefix__f)"/>
    </g>
</svg>
